<?xml version="1.0" encoding="utf-8"?>
<!-- Generator: Adobe Illustrator 19.0.0, SVG Export Plug-In . SVG Version: 6.00 Build 0)  -->
<svg version="1.1" id="Layer_1" xmlns="http://www.w3.org/2000/svg" xmlns:xlink="http://www.w3.org/1999/xlink" x="0px" y="0px"
	 viewBox="0 0 500 320" style="enable-background:new 0 0 500 320;" xml:space="preserve">
<style type="text/css">
	.st0{fill:#78D864;}
	.st1{fill:#21382F;}
</style>
<g id="XMLID_8_">
	<path id="XMLID_382_" class="st0" d="M106.3,161.4c-2.1-1.5-4.5-2.6-7.3-3.4c-2.7-0.8-5.5-1.2-8.3-1.2c-4.5,0-8.4,0.5-11.7,1.6
		c-3.3,1-6.1,2.4-8.3,4.1c-2.2,1.7-3.9,3.6-5,5.7c-1.1,2.1-1.7,4.3-1.7,6.5c0,2.3,0.5,4.4,1.6,6.2c1,1.8,2.4,3.5,4.2,5
		c1.7,1.5,3.7,2.8,5.9,4.1c2.2,1.2,4.4,2.4,6.7,3.5c2.3,1.1,4.5,2.2,6.7,3.3c2.2,1.1,4.2,2.3,5.9,3.5c1.7,1.2,3.1,2.6,4.2,4
		c1,1.5,1.6,3.1,1.6,4.9c0,2-0.6,3.8-1.8,5.3c-1.2,1.5-2.7,2.8-4.6,3.9c-1.9,1.1-4,1.9-6.4,2.4c-2.4,0.5-4.7,0.8-7.1,0.8
		c-2,0-4-0.2-5.8-0.6c-1.9-0.4-3.5-1.1-5-1.9c-1.4-0.9-2.6-1.9-3.5-3.3c-0.9-1.3-1.3-2.9-1.3-4.7c0-0.8,0.1-1.6,0.2-2.3
		c0.1-0.7,0.2-1.3,0.3-1.9c0.1-0.6,0.2-1.1,0.3-1.6c0.1-0.5,0.2-1,0.2-1.4c0-1-0.3-1.7-0.9-2.1c-0.6-0.5-1.3-0.7-2.2-0.7
		c-0.8,0-1.8,0.2-2.7,0.6c-1,0.4-1.9,1.1-2.7,1.9c-0.8,0.8-1.5,1.9-2.1,3.2c-0.6,1.3-0.8,2.7-0.8,4.4c0,3.2,0.8,6,2.3,8.4
		c1.5,2.4,3.5,4.4,6,6c2.5,1.6,5.4,2.8,8.6,3.6c3.2,0.8,6.5,1.2,9.9,1.2c2.4,0,4.8-0.2,7.2-0.6c2.4-0.4,4.7-1,6.9-1.8
		c2.2-0.8,4.2-1.8,6.1-3c1.9-1.2,3.5-2.6,4.9-4.1c1.4-1.6,2.5-3.3,3.3-5.3c0.8-2,1.2-4.1,1.2-6.4c0-2.6-0.5-4.9-1.6-6.9
		c-1.1-2-2.4-3.8-4.2-5.4c-1.7-1.6-3.7-3-5.9-4.3c-2.2-1.3-4.4-2.4-6.7-3.5c-2.3-1.1-4.6-2.2-6.7-3.2c-2.2-1-4.2-2.1-5.9-3.3
		c-1.7-1.2-3.1-2.4-4.2-3.8c-1-1.4-1.6-2.9-1.6-4.6c0-1,0.3-2,0.9-3.1c0.6-1,1.5-2,2.7-2.8c1.2-0.8,2.7-1.5,4.5-2.1
		c1.8-0.5,3.9-0.8,6.4-0.8c2.2,0,4.3,0.2,6.1,0.5c1.9,0.3,3.5,0.8,4.8,1.5c1.3,0.7,2.4,1.5,3.1,2.5c0.8,1,1.1,2.2,1.1,3.5
		c0,0.9-0.2,1.8-0.5,2.8c-0.4,1-0.9,2.1-1.7,3.2c-0.8,1.2-1.4,2.2-1.7,3.2c-0.3,0.9-0.5,1.7-0.5,2.4c0,0.9,0.3,1.6,0.8,2
		c0.5,0.5,1.2,0.7,2,0.7c1.1,0,2.3-0.4,3.7-1.2c1.3-0.8,2.6-2,3.7-3.6c1.2-1.7,2-3.3,2.6-4.9c0.5-1.6,0.8-3.1,0.8-4.6
		c0-2.5-0.6-4.8-1.9-6.8C110.1,164.6,108.4,162.8,106.3,161.4z"/>
	<path id="XMLID_96_" class="st0" d="M247.7,214.9c-0.6,0.6-1.3,1.1-1.9,1.5c-0.6,0.4-1.2,0.8-1.9,1.1c-0.6,0.3-1.2,0.4-1.8,0.4
		c-0.7,0-1.2-0.3-1.5-1c-0.2-0.7-0.3-1.6-0.3-2.9c0-1.4,0.2-3.2,0.7-5.3c0.4-2.1,0.8-3.9,1.2-5.6c0.3-1.6,0.6-3.2,0.9-4.8
		c0.3-1.6,0.4-3,0.4-4.2c0-0.8-0.1-1.5-0.2-2c-0.1-0.5-0.4-0.9-0.6-1.1c-0.3-0.3-0.6-0.4-0.9-0.5c-0.3-0.1-0.7-0.1-1.1-0.1
		c-0.3,0-0.6,0-0.9,0c-0.3,0-0.6,0-0.9,0c-0.3,0-0.7,0-1-0.1c-0.3,0-0.7-0.1-1-0.3c-0.3-0.1-0.6-0.4-0.8-0.6
		c-0.2-0.3-0.4-0.6-0.7-0.9c-0.2-0.3-0.5-0.6-0.9-0.8c-0.3-0.2-0.8-0.4-1.4-0.4c-1.8,0-3.7,0.4-5.4,1.2c-1.8,0.8-3.5,1.8-5.1,3.2
		c-1.6,1.3-3.1,2.9-4.4,4.7c-1.4,1.8-2.6,3.9-3.8,6.3c-1.2,2.4-2,4.7-2.6,6.8c-0.2,0.7-0.3,1.4-0.4,2c-0.7,0.3-1.4,0.4-2,0.4
		c-1,0-1.9-0.1-2.5-0.4c-0.7-0.3-1.2-0.7-1.6-1.2c-0.4-0.5-0.6-1-0.8-1.6c-0.2-0.6-0.2-1.2-0.2-1.9c0-0.6,0-1.2,0.1-1.8
		c0.1-0.6,0.2-1.1,0.3-1.5c0.2-0.5,0.3-1,0.5-1.5c0.2-0.4,0.8-2.1,1.9-4.9c0.2-0.4,0.6-1.2,1.2-2.6c0.3-0.6,0.6-1.4,0.8-2.2
		c0.2-0.7,0.3-1.4,0.3-2.1c0-1-0.4-1.8-1.3-2.4c-0.9-0.6-2.1-0.9-3.5-0.9c-0.6,0-1.1,0.1-1.6,0.2c-0.5,0.2-0.9,0.4-1.3,0.6
		c-0.4,0.2-0.7,0.5-1,0.9c-0.3,0.3-0.4,0.7-0.5,1.1l-10.3,26.4l-0.3,0l0.7-26.2c0-0.7-0.2-1.3-0.6-1.8c-0.4-0.5-0.8-0.8-1.5-0.8
		c-0.2,0-0.3,0-0.4,0l-0.4,0.1l-4.8,0.8c-0.9,0.1-1.4,1-1.7,2.5c-0.3,1.5-0.4,4-0.4,7.5c0,1.1,0,2.1,0,3.1c0,1,0.1,2.1,0.1,3.3
		c0.1,1.2,0.1,2.5,0.2,4c0.1,1.1,0.1,2.4,0.2,3.8c-1.2,0.8-2.3,1.6-3.4,2.3c-0.7,0.5-1.5,0.9-2.3,1.3c-0.8,0.4-1.6,0.8-2.3,1.2
		c-0.8,0.3-1.5,0.6-2.1,0.8c-0.7,0.2-1.3,0.3-1.8,0.3c-0.2,0-0.4-0.1-0.7-0.4c-0.2-0.3-0.5-0.7-0.7-1.2c-0.2-0.5-0.4-1-0.5-1.7
		c-0.1-0.6-0.2-1.3-0.2-1.9v-0.5c0.1-0.5,0.2-1,0.3-1.6c0.1-0.5,0.3-1,0.4-1.5c0.1-0.5,0.3-0.9,0.4-1.3c0.1-0.4,0.3-0.7,0.4-1
		c1.2-2.3,2.6-4.6,4-7c1.5-2.4,2.9-4.8,4.3-7.2c1.4-2.5,2.8-4.9,4.2-7.4c1.3-2.5,2.5-5,3.5-7.5c1-2.5,1.8-4.9,2.4-7.4
		c0.6-2.5,0.9-4.9,0.9-7.2c0-1-0.1-1.9-0.3-2.8c-0.2-0.9-0.5-1.7-1-2.5c-0.5-0.7-1.1-1.3-1.9-1.8c-0.8-0.4-1.8-0.7-3.1-0.7
		c-1.7,0-3.4,0.5-5,1.4c-1.6,0.9-3.2,2.2-4.7,3.8c-1.5,1.6-2.9,3.5-4.3,5.6c-1.4,2.1-2.6,4.5-3.8,6.9c-1.2,2.5-2.3,5.8-3.5,9.9
		c-1.2,4.1-1.7,6.1-1.7,6.1c0,0-0.4,2.1-1.2,6.2c-0.8,4.1-1.2,7.4-1.2,9.8c0,1.9,0.1,3.8,0.4,5.6c-0.6,0.7-1.2,1.4-1.8,2
		c-0.6,0.6-1.2,1.2-1.8,1.8c-0.6,0.6-1.3,1.1-1.9,1.5c-0.6,0.4-1.2,0.8-1.9,1.1c-0.6,0.3-1.2,0.4-1.8,0.4c-0.7,0-1.2-0.3-1.5-1
		c-0.2-0.7-0.3-1.6-0.3-2.9c0-1.4,0.2-3.2,0.7-5.3c0.4-2.1,0.8-3.9,1.2-5.6c0.3-1.6,0.6-3.2,0.9-4.8c0.3-1.6,0.4-3,0.4-4.2
		c0-0.8-0.1-1.5-0.2-2c-0.1-0.5-0.4-0.9-0.6-1.1c-0.3-0.3-0.6-0.4-0.9-0.5c-0.3-0.1-0.7-0.1-1.1-0.1c-0.3,0-0.6,0-0.9,0
		c-0.3,0-0.6,0-0.9,0c-0.3,0-0.7,0-1-0.1c-0.3,0-0.7-0.1-1-0.3c-0.3-0.1-0.6-0.4-0.8-0.6c-0.2-0.3-0.4-0.6-0.7-0.9
		c-0.2-0.3-0.5-0.6-0.9-0.8c-0.3-0.2-0.8-0.4-1.4-0.4c-1.8,0-3.7,0.4-5.4,1.2c-1.8,0.8-3.5,1.8-5.1,3.2c-1.6,1.3-3.1,2.9-4.4,4.7
		c-1.4,1.8-2.6,3.9-3.8,6.3c-1.2,2.4-2,4.7-2.6,6.8c-0.6,2.1-0.8,4.1-0.8,6.1c0,1.8,0.3,3.4,0.8,4.8c0.6,1.4,1.3,2.6,2.2,3.6
		s2,1.7,3.2,2.3c1.2,0.5,2.5,0.8,3.7,0.8c1.2,0,2.4-0.2,3.6-0.6c1.2-0.4,2.4-0.9,3.5-1.5c1.1-0.6,2.1-1.3,3.1-2.1
		c0.9-0.8,1.7-1.5,2.4-2.3c0.9,2.1,1.9,3.8,3.1,4.9c1.2,1.1,2.7,1.7,4.4,1.7c1.5,0,2.9-0.4,4.4-1.1c1.5-0.7,2.8-1.6,4.1-2.7
		c1.3-1,2.4-2.2,3.5-3.3c0.2-0.2,0.3-0.4,0.5-0.6c0.1,0.3,0.3,0.7,0.4,1c0.9,2,2,3.5,3.2,4.7c1.2,1.2,2.6,1.8,4,1.8
		c0.9,0,1.9-0.1,3-0.3c1.1-0.2,2.2-0.5,3.3-0.9c1.1-0.4,2.2-0.8,3.4-1.3c1.1-0.5,2.2-1,3.2-1.5c0.9-0.4,1.8-0.9,2.6-1.4
		c0.1,0.5,0.2,0.9,0.4,1.3c0.4,1.2,1.1,2.2,1.9,2.9c0.9,0.8,2.1,1.2,3.6,1.2c0.8,0,1.7-0.4,2.7-1.3c1-0.9,2-2,3-3.3
		c1-1.3,2-2.8,2.9-4.5c0.9-1.7,1.8-3.3,2.5-4.9c0,1,0.2,2,0.7,2.9c0.4,0.9,1,1.8,1.7,2.5c0.7,0.7,1.7,1.3,2.7,1.8
		c1.1,0.4,2.3,0.7,3.6,0.7c1.3,0,2.6-0.2,4-0.6c0,0.1,0.1,0.2,0.1,0.3c0.6,1.4,1.3,2.6,2.2,3.6c0.9,1,2,1.7,3.2,2.3
		c1.2,0.5,2.5,0.8,3.7,0.8c1.2,0,2.4-0.2,3.6-0.6c1.2-0.4,2.4-0.9,3.5-1.5c1.1-0.6,2.1-1.3,3.1-2.1c0.9-0.8,1.7-1.5,2.4-2.3
		c0.9,2.1,1.9,3.8,3.1,4.9c1.2,1.1,2.7,1.7,4.4,1.7c1.5,0,2.9-0.4,4.4-1.1c1.5-0.7,2.8-1.6,4.1-2.7c1.3-1,2.4-2.2,3.5-3.3
		C259,215,252.5,208.1,247.7,214.9z M136.5,208.1c-0.1,0.9-0.3,1.9-0.7,3.2c-0.4,1.3-0.8,2.5-1.4,3.7c-0.6,1.2-1.3,2.2-2.1,3.1
		c-0.8,0.9-1.7,1.3-2.7,1.3c-0.6,0-1.1-0.2-1.5-0.5c-0.4-0.3-0.7-0.7-1-1.2c-0.2-0.5-0.4-1.1-0.5-1.7c-0.1-0.6-0.1-1.3-0.1-2
		c0-1.2,0.2-2.4,0.5-3.7c0.3-1.3,0.8-2.9,1.6-4.6c0.7-1.7,1.5-3.2,2.3-4.4c0.8-1.2,1.6-2.2,2.5-3.2c0.9-0.9,1.9-1.7,2.9-2.2
		c1-0.5,2.1-0.8,3.2-0.8L136.5,208.1z M167.7,188.3c0.7-3.4,1.1-5.1,1.1-5.1c0,0,0.6-1.8,1.8-5.5c1.2-3.7,2.2-6.3,3-7.9
		c0.8-1.6,1.7-2.9,2.5-3.9c0.8-0.9,1.6-1.4,2.4-1.4c0.2,0,0.3,0.3,0.4,0.8c0,0.5,0.1,1.1,0.1,1.9c-0.2,2.3-0.8,4.8-1.7,7.4
		c-0.9,2.7-1.9,5.3-3.1,8c-1.2,2.7-2.5,5.3-3.8,7.8c-1.3,2.5-2.6,4.8-3.8,6.8C166.6,194.7,167,191.7,167.7,188.3z M231.1,208.1
		c-0.1,0.9-0.3,1.9-0.7,3.2c-0.4,1.3-0.8,2.5-1.4,3.7c-0.6,1.2-1.3,2.2-2.1,3.1c-0.8,0.9-1.7,1.3-2.7,1.3c-0.6,0-1.1-0.2-1.5-0.5
		c-0.4-0.3-0.7-0.7-1-1.2c-0.2-0.5-0.4-1.1-0.5-1.7c-0.1-0.6-0.1-1.3-0.1-2c0-1.2,0.2-2.4,0.5-3.7c0.3-1.3,0.8-2.9,1.6-4.6
		c0.7-1.7,1.5-3.2,2.3-4.4c0.8-1.2,1.6-2.2,2.5-3.2c0.9-0.9,1.9-1.7,2.9-2.2c1-0.5,2.1-0.8,3.2-0.8L231.1,208.1z"/>
	<path id="XMLID_95_" class="st0" d="M321.9,172.1c-1.1-2.1-2.5-4-4.3-5.8c-1.8-1.8-3.9-3.3-6.5-4.6c-2.6-1.3-5.5-2.3-8.9-3
		c-3.4-0.7-7.3-1.1-11.6-1.1c-2.3,0-4.6,0.2-6.9,0.5c-2.2,0.3-4.3,0.9-6.3,1.6c-2,0.7-3.8,1.7-5.5,2.8c-1.7,1.1-3.1,2.5-4.3,4.1
		c-1.2,1.6-2.2,3.5-2.8,5.5c-0.7,2.1-1,4.4-1,7c0,2.7,0.6,4,1.8,4c0.9,0,1.9-0.8,3.2-2.5c1.2-1.6,2.8-4,4.8-7
		c0.7-1.2,1.8-2.2,3.2-3.1c1.4-0.9,3.1-1.6,5-2.1c1.9-0.6,3.9-1,6.1-1.2c2.2-0.3,4.4-0.4,6.7-0.4c3.1,0,5.9,0.4,8.4,1.3
		c2.6,0.9,4.8,2.2,6.6,3.9c1.8,1.7,3.2,3.7,4.3,6.2c1,2.4,1.5,5.2,1.5,8.3c0,2.5-0.3,5.1-0.9,7.8c-0.6,2.7-1.5,5.6-2.6,8.7
		c-1.1,3.1-2.5,5.8-4.1,8.1c-1.6,2.3-3.4,4.4-5.5,6.2c-2,1.8-4.2,3.2-6.6,4.2c-2.4,1.1-4.9,1.6-7.6,1.6c-0.9,0-1.6-0.1-2.1-0.3
		c-0.5-0.2-0.9-0.5-1.2-0.9c-0.3-0.4-0.4-0.9-0.5-1.6c-0.1-0.7-0.1-1.5-0.1-2.5c0-0.9,0-1.9,0.1-2.9c0.1-1,0.2-2.1,0.3-3.4
		c0.1-1.3,0.4-2.8,0.6-4.6c0.7-5.1,1-7.6,0.9-7.7c0-0.1,0.3-2.3,1-6.8c0.4-2.3,0.8-4.4,1.4-6.4c0.6-2,1.3-3.9,2.1-6
		c0.8-2,1.9-3.9,3.1-5.5c-1-1.6-2.6-2.5-4.9-2.5c-2.9,0-4.6,0.4-5.1,1.2c-2.1,3.2-3.9,6.6-5.1,10.4c-1.3,3.7-2.3,8-3,12.9
		c-0.7,4.9-1.1,9.6-1.4,14.3c-0.2,4.6-0.3,9.2-0.3,13.6c0,0.5,0,0.8,0,1.1c0,0.3,0.1,0.6,0.2,0.8c0.1,0.2,0.3,0.4,0.5,0.5
		c0.2,0.1,0.5,0.3,0.8,0.4c0.8,0.4,1.8,0.9,2.8,1.3c1.1,0.4,2.2,0.8,3.4,1.1c1.2,0.3,2.5,0.6,3.8,0.8c1.3,0.2,2.6,0.3,3.8,0.3
		c3.7,0,7.2-0.6,10.4-1.8c3.2-1.2,6.1-2.9,8.8-5c2.7-2.1,5-4.6,7.1-7.4c2.1-2.8,3.8-5.9,5.2-9.1c1.4-3.2,2.5-6.8,3.2-10.7
		c0.7-3.9,1.1-7.6,1.1-10.9c0-2.4-0.2-4.8-0.7-7.2C323.8,176.4,323,174.1,321.9,172.1z"/>
	<path id="XMLID_94_" class="st0" d="M343.2,182.7c1.4,0,2.5-0.2,3.5-0.6c1-0.4,1.8-1,2.4-1.6c0.6-0.7,1.1-1.4,1.4-2.3
		c0.3-0.9,0.4-1.7,0.4-2.7c0-1-0.2-1.9-0.5-2.6c-0.4-0.7-0.8-1.3-1.5-1.8c-0.6-0.4-1.3-0.8-2.2-1c-0.8-0.2-1.7-0.3-2.6-0.3
		c-1.5,0-2.7,0.2-3.7,0.7c-1,0.5-1.8,1-2.4,1.7c-0.6,0.7-1,1.4-1.3,2.2c-0.3,0.8-0.4,1.5-0.4,2.1c0,1.9,0.6,3.3,1.7,4.5
		C339.1,182.2,340.9,182.7,343.2,182.7z"/>
	<path id="XMLID_89_" class="st0" d="M451.1,208.3c-2.3,1-1.8,2.3-5.7,6.6c-0.6,0.6-1.2,1.1-1.9,1.5c-0.6,0.4-1.2,0.8-1.8,1.1
		c-0.6,0.3-1.2,0.4-1.7,0.4c-0.7,0-1.2-0.3-1.4-1c-0.2-0.7-0.3-1.6-0.3-2.9c0-1.4,0.2-3.2,0.7-5.3c0.4-2.1,0.8-3.9,1.2-5.6
		c0.3-1.6,0.6-3.2,0.9-4.8c0.3-1.6,0.4-3,0.4-4.2c0-0.8-0.1-1.5-0.2-2c-0.1-0.5-0.3-0.9-0.6-1.1c-0.3-0.3-0.6-0.4-0.9-0.5
		c-0.3-0.1-0.7-0.1-1.1-0.1c-0.3,0-0.6,0-0.9,0c-0.3,0-0.6,0-0.9,0c-0.3,0-0.7,0-1-0.1c-0.3,0-0.7-0.1-1-0.3
		c-0.3-0.1-0.6-0.4-0.8-0.6c-0.2-0.3-0.4-0.6-0.7-0.9c-0.2-0.3-0.5-0.6-0.9-0.8c-0.3-0.2-0.8-0.4-1.4-0.4c-1.8,0-3.6,0.4-5.4,1.2
		c-1.8,0.8-3.4,1.8-5,3.2c-1.6,1.3-3,2.9-4.4,4.7c-1.3,1.8-2.6,3.9-3.7,6.3c-1.2,2.4-2,4.7-2.6,6.8c-0.3,1-0.5,2.1-0.6,3.1
		c-0.1,0.1-0.2,0.2-0.4,0.3c-1.1,0.8-2.2,1.4-3.3,2.1c-1.1,0.6-2.2,1.2-3.2,1.6c-1,0.5-1.9,0.8-2.8,1.1c-0.8,0.3-1.5,0.4-2.1,0.4
		c-0.9,0-1.7-0.1-2.5-0.4c-0.7-0.3-1.4-0.7-1.9-1.4c-0.5-0.6-0.9-1.4-1.2-2.4c-0.3-1-0.4-2.2-0.4-3.6c0-0.6,0-1.2,0-1.8
		c0-0.7,0-1.4,0.1-2.1c0-0.7,0.1-1.4,0.1-2.2c0-0.7,0.1-1.4,0.1-2.1c0.1-1.6,0.2-3.2,0.3-4.8c0.7-0.8,1.4-1.7,2.2-2.8
		c0.8-1,1.6-2.1,2.3-3.1h15.4c0.6,0,1.2-0.3,1.8-0.9c0.5-0.6,0.8-1.4,0.8-2.4c0-0.9-0.1-1.6-0.4-2.1c-0.2-0.6-0.6-0.9-1.2-0.9
		c-0.5,0-1-0.1-1.7-0.1c-0.7,0-1.4-0.1-2.2-0.1c-0.8,0-1.6-0.1-2.5-0.1c-0.9,0-1.6,0-2.4-0.1c-0.7,0-1.4-0.1-1.9-0.1
		c-0.6-0.1-1,0-1.2,0.1c1-1.5,1.9-3,2.7-4.5c0.9-1.5,1.6-3,2.3-4.5c0.6-1.5,1.1-2.9,1.5-4.3c0.4-1.4,0.6-2.8,0.6-4
		c0-1.5-0.2-3-0.5-4.4c-0.4-1.4-0.9-2.7-1.5-3.7c-0.7-1.1-1.5-1.9-2.4-2.5c-0.9-0.6-2-1-3.1-1c-1.8,0-3.5,0.8-5.1,2.4
		c-1.6,1.6-3.1,3.7-4.5,6.3c-1.4,2.6-2.6,5.6-3.7,8.9c-1.1,3.3-2,6.8-2.7,10.4c-0.3,0.1-0.8,0.1-1.5,0.1c-0.7,0-1.5,0-2.4-0.1
		c-0.9,0-1.8,0-2.8,0c-1,0-1.9,0.1-2.7,0.2c-0.8,0.1-1.5,0.3-2,0.5c-0.5,0.2-0.8,0.5-0.8,1c0,0.3,0,0.6,0,1c0,0.4,0.1,0.7,0.3,1.1
		c0.2,0.3,0.4,0.6,0.8,0.9c0.4,0.2,0.8,0.4,1.5,0.5c1.4,0.2,2.6,0.3,3.3,0.4c0.8,0.1,1.4,0.2,1.9,0.3c0.5,0.1,1,0.2,1.4,0.3
		c0.4,0.1,1.1,0.2,1.9,0.3c-0.2,1.8-0.4,3.6-0.6,5.4c-0.1,1.8-0.2,3.5-0.2,5.1c0,3.2,0.2,6.1,0.5,8.8c-0.8,0.7-1.8,1.5-2.9,2.3
		c-1.5,1.1-3.1,2.1-4.8,3.1c-1.7,0.9-3.4,1.7-5.2,2.3c-1.8,0.6-3.5,0.9-5.1,0.9c-0.5,0-1-0.1-1.4-0.2c-0.4-0.1-0.9-0.3-1.3-0.5
		c-0.4-0.3-0.8-0.6-1.2-1.1c-0.4-0.5-0.8-1.1-1.2-1.8c2.3-0.6,4.5-1.5,6.5-2.6c2-1.1,3.7-2.4,5.1-3.8c1.4-1.4,2.7-3.2,3.8-5.2
		c1.1-2,1.6-3.8,1.6-5.4c0-1.5-0.3-2.9-0.8-4.1c-0.5-1.2-1.3-2.3-2.2-3.1c-0.9-0.9-2.1-1.5-3.3-2c-1.3-0.5-2.7-0.7-4.2-0.7
		c-1.8,0-3.5,0.3-5,1c-1.5,0.6-2.8,1.5-4.1,2.6c-1.2,1.1-2.3,2.4-3.2,3.8c-0.9,1.4-1.6,2.9-2.2,4.5c-0.6,1.6-1.2,3.4-1.7,5.4
		c-0.6,2-0.8,3.8-0.8,5.3c0,1.3,0.1,2.5,0.3,3.7c-0.8,0.7-1.7,1.4-2.5,2.1c-1.2,0.9-2.4,1.8-3.6,2.4c-1.2,0.7-2.2,1-3.2,1
		c-0.8,0-1.4-0.4-1.6-1.1c-0.3-0.7-0.4-1.7-0.4-2.9c0-1.2,0.2-2.6,0.6-4.1c0.4-1.5,0.7-3,1-4.5c0.3-1.5,0.7-3.3,1.4-5.5
		c0.7-2.2,1.2-3.9,1.6-5.3c0.3-1.4,0.7-2.6,0.9-3.7c0.3-1.1,0.4-1.9,0.4-2.5c0-0.7-0.2-1.2-0.6-1.7c-0.4-0.4-1.1-0.6-2.2-0.6
		c-0.6,0-1.3,0.1-2,0.2c-0.7,0.1-1.5,0.4-2.2,0.7c-0.7,0.3-1.3,0.7-1.9,1.2c-0.6,0.5-1,1.1-1.1,1.8c-0.2,1-0.9,3-1.9,6.2
		c-1.1,3.9-1.8,6.4-2.2,7.6c-0.2,0.6-0.7,3.2-1.5,7.8c-0.4,2.2-0.6,4.2-0.6,5.9c0,1.2,0.1,2.3,0.4,3.3c0.3,1,0.7,1.8,1.3,2.5
		c0.6,0.7,1.4,1.2,2.3,1.6c0.9,0.4,2.1,0.6,3.5,0.6c1.5,0,3.2-0.3,4.9-0.8c1.7-0.6,3.4-1.3,5.1-2.1c1.7-0.8,3.2-1.8,4.6-2.8
		c0.6-0.4,1.2-0.9,1.7-1.3c0.4,0.7,0.8,1.3,1.3,1.9c1.2,1.6,2.8,2.8,4.7,3.7c1.9,0.9,4,1.4,6.5,1.4c1.6,0,3.2-0.2,4.7-0.6
		c1.6-0.4,3.1-0.9,4.5-1.5c1.4-0.6,2.8-1.3,4.2-2.1c1.3-0.8,2.6-1.6,3.7-2.4c1.1-0.8,2.2-1.7,3.2-2.5c0.2,0.7,0.5,1.4,0.8,2
		c1,2.3,2.3,4,3.9,5.3c1.5,1.2,3.3,1.8,5.3,1.8c1,0,2.1-0.2,3.3-0.6c1.2-0.4,2.6-0.9,4.2-1.7c1.6-0.7,3.3-1.7,5.3-2.8
		c0.7-0.4,1.4-0.8,2.2-1.2c0.5,1.3,1.2,2.4,2.1,3.3c0.9,1,2,1.7,3.2,2.3c1.2,0.5,2.4,0.8,3.7,0.8c1.2,0,2.4-0.2,3.6-0.6
		c1.2-0.4,2.3-0.9,3.4-1.5c1.1-0.6,2.1-1.3,3-2.1c0.9-0.8,1.7-1.5,2.3-2.3c0.8,2.1,1.9,3.8,3,4.9c1.2,1.1,2.6,1.7,4.4,1.7
		c1.4,0,2.9-0.4,4.3-1.1c1.4-0.7,2.8-1.6,4.1-2.7c1.3-1,2.4-2.2,3.4-3.3C453.6,217.2,455.3,207.3,451.1,208.3z M393.8,177.4
		c0.6-2.3,1.2-4.3,1.8-6.2c0.7-1.9,1.3-3.4,2-4.6c0.7-1.2,1.4-1.8,2.1-1.8c0.5,0,0.9,0.1,1.2,0.3c0.3,0.2,0.5,0.5,0.6,0.8
		c0.1,0.3,0.2,0.7,0.3,1c0,0.4,0.1,0.7,0.1,1c0,0.8-0.2,1.9-0.7,3.2c-0.5,1.3-1,2.7-1.7,4.2c-0.7,1.5-1.5,3-2.3,4.6
		c-0.9,1.6-1.7,3-2.5,4.3c-0.4,0-0.8-0.1-1.2-0.1s-0.8-0.1-1.2-0.1C392.7,181.8,393.2,179.6,393.8,177.4z M359.6,205.9
		c0.1-0.8,0.3-1.8,0.7-3.1c0.4-1.2,0.8-2.3,1.2-3.1c0.3-0.8,0.8-1.6,1.3-2.3c0.5-0.7,1.2-1.2,2-1.6c0.8-0.4,1.8-0.6,2.9-0.6
		c0.6,0,1.2,0.4,1.6,1.1c0.4,0.8,0.7,1.7,0.7,2.9c0,0.8-0.5,1.9-1.4,3.2c-0.9,1.3-1.9,2.3-2.9,3c-1,0.8-2,1.4-3.2,1.9
		c-1.1,0.5-2.2,0.7-3.1,0.7C359.5,207.4,359.5,206.7,359.6,205.9z M429.3,208.1c-0.1,0.9-0.3,1.9-0.7,3.2c-0.4,1.3-0.8,2.5-1.4,3.7
		c-0.6,1.2-1.3,2.2-2.1,3.1c-0.8,0.9-1.7,1.3-2.7,1.3c-0.6,0-1.1-0.2-1.5-0.5c-0.4-0.3-0.7-0.7-1-1.2c-0.2-0.5-0.4-1.1-0.5-1.7
		c-0.1-0.6-0.1-1.3-0.1-2c0-1.2,0.2-2.4,0.5-3.7c0.3-1.3,0.8-2.9,1.6-4.6c0.7-1.7,1.5-3.2,2.3-4.4c0.8-1.2,1.6-2.2,2.5-3.2
		c0.9-0.9,1.9-1.7,2.9-2.2c1-0.5,2.1-0.8,3.2-0.8L429.3,208.1z"/>
	<g id="XMLID_66_">
		<path id="XMLID_86_" class="st1" d="M181.6,280.5c0,1.2-0.2,2.3-0.5,3.3c-0.4,1-0.9,1.8-1.5,2.5c-0.7,0.7-1.4,1.2-2.4,1.6
			c-0.9,0.4-1.9,0.5-3,0.5h-5.7v-15.6h5.7c1.1,0,2.1,0.2,3,0.5c0.9,0.4,1.7,0.9,2.4,1.6c0.7,0.7,1.2,1.5,1.5,2.5
			C181.5,278.2,181.6,279.3,181.6,280.5z M180.5,280.5c0-1.1-0.2-2.1-0.5-2.9c-0.3-0.9-0.7-1.6-1.3-2.2s-1.2-1-2-1.3
			c-0.8-0.3-1.6-0.5-2.6-0.5h-4.6v13.8h4.6c0.9,0,1.8-0.2,2.6-0.5c0.8-0.3,1.4-0.8,2-1.3c0.6-0.6,1-1.3,1.3-2.2
			C180.3,282.6,180.5,281.6,180.5,280.5z"/>
		<path id="XMLID_84_" class="st1" d="M205.2,287.4l0,0.9h-9.4v-15.6h9.4v0.9H197v6.3h6.8v0.9H197v6.5H205.2z"/>
		<path id="XMLID_82_" class="st1" d="M227.8,287.4v1h-8.5v-15.6h1.1v14.6H227.8z"/>
		<path id="XMLID_79_" class="st1" d="M242.2,288.3h-1.1v-15.6h1.1V288.3z"/>
		<path id="XMLID_77_" class="st1" d="M269.3,272.7l-6.4,15.6h-1l-6.4-15.6h0.9c0.1,0,0.2,0,0.3,0.1c0.1,0.1,0.1,0.1,0.2,0.2
			L262,286c0.1,0.2,0.1,0.3,0.2,0.5c0.1,0.2,0.1,0.4,0.2,0.6c0-0.2,0.1-0.4,0.1-0.6c0.1-0.2,0.1-0.4,0.2-0.5L268,273
			c0-0.1,0.1-0.2,0.2-0.2c0.1-0.1,0.2-0.1,0.3-0.1H269.3z"/>
		<path id="XMLID_75_" class="st1" d="M291.9,287.4l0,0.9h-9.4v-15.6h9.4v0.9h-8.2v6.3h6.8v0.9h-6.8v6.5H291.9z"/>
		<path id="XMLID_72_" class="st1" d="M316.7,288.3h-1c-0.1,0-0.2,0-0.3-0.1c-0.1,0-0.2-0.1-0.2-0.2l-5-6.3
			c-0.1-0.1-0.1-0.2-0.2-0.2c-0.1-0.1-0.1-0.1-0.2-0.1c-0.1,0-0.2-0.1-0.3-0.1c-0.1,0-0.2,0-0.4,0h-2v7.1h-1.1v-15.6h4
			c1.8,0,3.1,0.3,4,1c0.9,0.7,1.3,1.7,1.3,3.1c0,0.6-0.1,1.1-0.3,1.6c-0.2,0.5-0.5,0.9-0.9,1.3c-0.4,0.4-0.9,0.7-1.4,0.9
			c-0.5,0.2-1.2,0.4-1.8,0.5c0.2,0.1,0.3,0.3,0.5,0.4L316.7,288.3z M309.8,280.4c0.7,0,1.3-0.1,1.9-0.2c0.5-0.2,1-0.4,1.4-0.7
			c0.4-0.3,0.7-0.7,0.9-1.1c0.2-0.4,0.3-0.9,0.3-1.5c0-1.1-0.4-1.9-1.1-2.5c-0.7-0.5-1.8-0.8-3.2-0.8h-2.9v6.8H309.8z"/>
		<path id="XMLID_70_" class="st1" d="M334.3,281.9v6.4h-1.1v-6.4l-5.8-9.2h1c0.1,0,0.2,0,0.3,0.1c0.1,0,0.1,0.1,0.2,0.2l4.5,7.2
			c0.1,0.2,0.2,0.3,0.3,0.5s0.2,0.3,0.2,0.5c0.1-0.2,0.1-0.3,0.2-0.5c0.1-0.2,0.2-0.3,0.3-0.5l4.5-7.2c0-0.1,0.1-0.1,0.2-0.2
			c0.1-0.1,0.2-0.1,0.3-0.1h1L334.3,281.9z"/>
		<g id="XMLID_68_">
			<rect id="XMLID_69_" x="54.9" y="280.3" class="st1" width="88.8" height="1.2"/>
		</g>
		<rect id="XMLID_67_" x="365.5" y="280.3" class="st1" width="88.8" height="1.2"/>
	</g>
	<circle id="XMLID_65_" class="st1" cx="30.7" cy="192.2" r="4.1"/>
	<circle id="XMLID_64_" class="st1" cx="470.4" cy="192.2" r="4.1"/>
	<g id="XMLID_53_">
		<path id="XMLID_62_" class="st1" d="M396.7,120.7c0.1,0,0.2,0,0.2,0.1c0,0.1,0.1,0.1,0.1,0.2v0.5h-7.4v-0.3c0-0.1,0-0.1,0-0.2
			c0-0.1,0.1-0.1,0.1-0.2l3.9-4c0.3-0.3,0.6-0.6,0.9-1c0.3-0.3,0.5-0.6,0.7-0.9c0.2-0.3,0.4-0.6,0.5-1c0.1-0.3,0.2-0.7,0.2-1.1
			c0-0.4-0.1-0.8-0.2-1.1c-0.1-0.3-0.3-0.6-0.6-0.8c-0.2-0.2-0.5-0.3-0.8-0.4c-0.3-0.1-0.6-0.1-1-0.1c-0.4,0-0.7,0.1-1,0.2
			c-0.3,0.1-0.6,0.3-0.8,0.5c-0.2,0.2-0.4,0.4-0.6,0.7c-0.2,0.3-0.3,0.6-0.3,0.9c0,0.1-0.1,0.2-0.2,0.2c-0.1,0-0.1,0.1-0.3,0
			l-0.4-0.1c0.1-0.5,0.2-0.9,0.4-1.3c0.2-0.4,0.5-0.7,0.8-1c0.3-0.3,0.7-0.5,1.1-0.6c0.4-0.1,0.8-0.2,1.3-0.2c0.4,0,0.9,0.1,1.3,0.2
			c0.4,0.1,0.7,0.3,1.1,0.6c0.3,0.3,0.5,0.6,0.7,1c0.2,0.4,0.3,0.8,0.3,1.4c0,0.4-0.1,0.8-0.2,1.2c-0.1,0.4-0.3,0.7-0.5,1.1
			c-0.2,0.3-0.5,0.7-0.8,1c-0.3,0.3-0.6,0.7-0.9,1l-3.6,3.7c0.2,0,0.4-0.1,0.5-0.1c0.2,0,0.4,0,0.6,0H396.7z"/>
		<path id="XMLID_59_" class="st1" d="M406.9,115.7c0,1-0.1,1.9-0.3,2.6c-0.2,0.7-0.5,1.3-0.9,1.8c-0.4,0.5-0.8,0.8-1.3,1.1
			c-0.5,0.2-1,0.4-1.6,0.4c-0.6,0-1.1-0.1-1.6-0.4c-0.5-0.2-0.9-0.6-1.3-1.1c-0.4-0.5-0.7-1.1-0.9-1.8c-0.2-0.7-0.3-1.6-0.3-2.6
			s0.1-1.9,0.3-2.6c0.2-0.7,0.5-1.3,0.9-1.8c0.4-0.5,0.8-0.8,1.3-1.1c0.5-0.2,1-0.4,1.6-0.4c0.6,0,1.1,0.1,1.6,0.4
			c0.5,0.2,0.9,0.6,1.3,1.1c0.4,0.5,0.7,1.1,0.9,1.8C406.8,113.8,406.9,114.7,406.9,115.7z M406.1,115.7c0-0.9-0.1-1.7-0.3-2.4
			c-0.2-0.7-0.4-1.2-0.7-1.6c-0.3-0.4-0.7-0.7-1.1-0.9c-0.4-0.2-0.8-0.3-1.3-0.3c-0.4,0-0.9,0.1-1.3,0.3c-0.4,0.2-0.8,0.5-1.1,0.9
			c-0.3,0.4-0.5,1-0.7,1.6c-0.2,0.7-0.3,1.5-0.3,2.4c0,0.9,0.1,1.7,0.3,2.4c0.2,0.7,0.4,1.2,0.7,1.6c0.3,0.4,0.7,0.7,1.1,0.9
			c0.4,0.2,0.8,0.3,1.3,0.3c0.4,0,0.9-0.1,1.3-0.3c0.4-0.2,0.8-0.5,1.1-0.9c0.3-0.4,0.5-1,0.7-1.6
			C406,117.4,406.1,116.6,406.1,115.7z"/>
		<path id="XMLID_57_" class="st1" d="M415.6,120.8v0.6h-5.9v-0.6h2.6v-9.3c0-0.2,0-0.4,0-0.6l-2.5,2.2c-0.1,0.1-0.2,0.1-0.2,0.1
			c-0.1,0-0.1,0-0.2-0.1l-0.2-0.3l3.3-2.9h0.6v10.9H415.6z"/>
		<path id="XMLID_54_" class="st1" d="M420.3,114.4c-0.2,0.2-0.3,0.4-0.5,0.6c-0.1,0.2-0.3,0.4-0.4,0.6c0.3-0.3,0.7-0.6,1.1-0.8
			c0.4-0.2,0.9-0.3,1.4-0.3c0.5,0,0.9,0.1,1.4,0.2c0.4,0.2,0.8,0.4,1.1,0.7c0.3,0.3,0.5,0.7,0.7,1.1c0.2,0.4,0.3,0.9,0.3,1.4
			c0,0.5-0.1,1-0.3,1.4c-0.2,0.4-0.4,0.8-0.8,1.1c-0.3,0.3-0.7,0.6-1.2,0.7c-0.5,0.2-1,0.3-1.5,0.3c-0.5,0-1-0.1-1.5-0.3
			c-0.4-0.2-0.8-0.4-1.1-0.7c-0.3-0.3-0.6-0.7-0.7-1.2c-0.2-0.5-0.3-1-0.3-1.6c0-0.4,0.1-1,0.3-1.5c0.2-0.6,0.6-1.2,1.1-1.9l3.1-4.2
			c0.1-0.1,0.2-0.2,0.4-0.2h0.7L420.3,114.4z M421.6,120.9c0.5,0,0.9-0.1,1.3-0.2c0.4-0.1,0.7-0.3,1-0.6c0.3-0.3,0.5-0.6,0.6-0.9
			c0.1-0.4,0.2-0.7,0.2-1.2c0-0.4-0.1-0.8-0.2-1.2c-0.1-0.4-0.3-0.7-0.6-0.9c-0.3-0.2-0.6-0.4-0.9-0.6c-0.3-0.1-0.7-0.2-1.2-0.2
			c-0.5,0-0.9,0.1-1.3,0.2c-0.4,0.2-0.7,0.4-1,0.6c-0.3,0.3-0.5,0.6-0.6,0.9c-0.1,0.3-0.2,0.7-0.2,1c0,0.4,0.1,0.8,0.2,1.2
			c0.1,0.4,0.3,0.7,0.6,0.9c0.2,0.3,0.5,0.5,0.9,0.6C420.8,120.8,421.1,120.9,421.6,120.9z"/>
	</g>
	<g id="XMLID_34_">
		<path id="XMLID_49_" class="st1" d="M87.3,109.7c1.2,0,2.2,0.2,2.8,0.7c0.6,0.5,0.9,1.2,0.9,2.1c0,0.3-0.1,0.6-0.2,0.9
			c-0.1,0.3-0.3,0.6-0.5,0.8c-0.2,0.2-0.5,0.5-0.8,0.6c-0.3,0.2-0.6,0.3-1,0.4c0.5,0,0.9,0.1,1.3,0.3c0.4,0.1,0.7,0.3,0.9,0.6
			c0.3,0.2,0.5,0.5,0.6,0.8c0.1,0.3,0.2,0.7,0.2,1.1c0,0.5-0.1,0.9-0.3,1.3c-0.2,0.4-0.4,0.7-0.7,1c-0.3,0.3-0.7,0.5-1.2,0.6
			c-0.5,0.1-1,0.2-1.6,0.2h-3.5v-11.4H87.3z M84.7,110.1v5.1h2.7c0.6,0,1.1-0.1,1.5-0.2c0.4-0.2,0.7-0.4,1-0.6
			c0.3-0.2,0.4-0.5,0.6-0.8c0.1-0.3,0.2-0.6,0.2-0.9c0-0.8-0.3-1.4-0.8-1.9c-0.5-0.4-1.3-0.7-2.4-0.7H84.7z M87.7,120.8
			c1.1,0,1.9-0.2,2.5-0.7c0.6-0.5,0.9-1.1,0.9-2c0-0.4-0.1-0.8-0.2-1.1c-0.2-0.3-0.4-0.6-0.7-0.8c-0.3-0.2-0.6-0.4-1-0.5
			c-0.4-0.1-0.9-0.2-1.4-0.2h-3.1v5.2H87.7z"/>
		<path id="XMLID_46_" class="st1" d="M101.9,121.2h-0.4c-0.1,0-0.1,0-0.2,0c0,0-0.1-0.1-0.1-0.1l-4-4.9c0-0.1-0.1-0.1-0.1-0.1
			c0,0-0.1-0.1-0.2-0.1c-0.1,0-0.1,0-0.2-0.1c-0.1,0-0.2,0-0.3,0h-1.7v5.4h-0.4v-11.4h2.8c1.2,0,2.2,0.2,2.8,0.7
			c0.6,0.5,1,1.2,1,2.2c0,0.5-0.1,0.9-0.3,1.2s-0.4,0.7-0.7,1c-0.3,0.3-0.7,0.5-1.1,0.6c-0.4,0.2-0.9,0.3-1.4,0.3
			c0.1,0.1,0.2,0.1,0.3,0.2L101.9,121.2z M94.8,115.4H97c0.5,0,1-0.1,1.5-0.2c0.4-0.1,0.8-0.3,1.1-0.6c0.3-0.2,0.5-0.5,0.7-0.9
			c0.2-0.3,0.2-0.7,0.2-1.2c0-0.9-0.3-1.5-0.9-1.9c-0.6-0.4-1.4-0.6-2.5-0.6h-2.3V115.4z"/>
		<path id="XMLID_43_" class="st1" d="M112.4,121.2h-0.3c-0.1,0-0.1,0-0.2-0.1l-1.5-3.6h-5.9l-1.5,3.6c0,0.1-0.1,0.1-0.2,0.1h-0.3
			l4.7-11.4h0.4L112.4,121.2z M110.3,117.1l-2.6-6.4c-0.1-0.1-0.1-0.3-0.2-0.5c0,0.2-0.1,0.3-0.2,0.5l-2.6,6.4H110.3z"/>
		<path id="XMLID_41_" class="st1" d="M119.9,110.9c0,0.1-0.1,0.1-0.1,0.1c-0.1,0-0.1-0.1-0.2-0.2c-0.1-0.1-0.3-0.2-0.4-0.4
			c-0.2-0.1-0.4-0.2-0.7-0.4c-0.3-0.1-0.7-0.2-1.1-0.2c-0.4,0-0.8,0.1-1.2,0.2c-0.3,0.1-0.6,0.3-0.9,0.5c-0.2,0.2-0.4,0.5-0.5,0.8
			c-0.1,0.3-0.2,0.6-0.2,0.9c0,0.4,0.1,0.8,0.3,1c0.2,0.3,0.4,0.5,0.7,0.7c0.3,0.2,0.6,0.3,0.9,0.5c0.3,0.1,0.7,0.3,1.1,0.4
			c0.4,0.1,0.7,0.3,1.1,0.4c0.3,0.1,0.7,0.3,0.9,0.5c0.3,0.2,0.5,0.5,0.7,0.8c0.2,0.3,0.3,0.7,0.3,1.2c0,0.5-0.1,0.9-0.2,1.3
			c-0.2,0.4-0.4,0.8-0.7,1.1c-0.3,0.3-0.7,0.5-1.1,0.7c-0.4,0.2-0.9,0.3-1.5,0.3c-0.4,0-0.7,0-1-0.1c-0.3-0.1-0.6-0.2-0.9-0.3
			c-0.3-0.1-0.5-0.3-0.7-0.5c-0.2-0.2-0.4-0.4-0.6-0.6l0.1-0.2c0,0,0.1,0,0.1-0.1c0,0,0,0,0.1,0c0,0,0.1,0,0.2,0.1
			c0.1,0.1,0.2,0.2,0.3,0.3c0.1,0.1,0.2,0.2,0.4,0.3c0.2,0.1,0.3,0.2,0.5,0.3c0.2,0.1,0.4,0.2,0.7,0.3c0.3,0.1,0.6,0.1,0.9,0.1
			c0.5,0,0.9-0.1,1.3-0.2c0.4-0.2,0.7-0.4,1-0.6c0.3-0.3,0.5-0.6,0.6-0.9c0.1-0.4,0.2-0.7,0.2-1.1c0-0.4-0.1-0.8-0.3-1.1
			s-0.4-0.5-0.7-0.7c-0.3-0.2-0.6-0.3-0.9-0.5c-0.4-0.1-0.7-0.2-1.1-0.4c-0.4-0.1-0.7-0.2-1.1-0.4c-0.4-0.1-0.7-0.3-0.9-0.5
			c-0.3-0.2-0.5-0.5-0.7-0.8c-0.2-0.3-0.3-0.7-0.3-1.2c0-0.4,0.1-0.7,0.2-1.1c0.1-0.3,0.3-0.6,0.6-0.9c0.3-0.3,0.6-0.5,1-0.6
			c0.4-0.2,0.8-0.2,1.4-0.2c0.6,0,1.1,0.1,1.5,0.3c0.4,0.2,0.9,0.5,1.2,0.9L119.9,110.9z"/>
		<path id="XMLID_39_" class="st1" d="M123.6,121.2h-0.4v-11.4h0.4V121.2z"/>
		<path id="XMLID_35_" class="st1" d="M133.3,120.8v0.4h-6.1v-11.4h0.4v11H133.3z"/>
	</g>
	<g id="XMLID_30_">
		<path id="XMLID_33_" class="st1" d="M221.4,28.2L221.4,28.2c-0.6,0.6-0.8,1.4-0.2,1.8l18.4,22c0.4,0.4,0.2,1.2-0.4,1.6
			c-0.6,0.4-1.2,0.6-1.6,0.2l-18.4-22c-0.4-0.6-1.2-0.6-1.8-0.2l0,0c-0.6,0.4-0.6,1.2-0.2,1.8l18.4,22c0.4,0.4,0.2,1.2-0.4,1.6
			c-0.6,0.4-1.2,0.6-1.6,0.2l-18.4-22c-0.4-0.6-1.2-0.6-1.8-0.2l0,0c-0.6,0.4-0.6,1.2-0.2,1.8l18.4,22c0.4,0.4,0.2,1.2-0.4,1.6
			c-0.6,0.4-1.2,0.6-1.6,0.2l-18.4-22c-0.4-0.6-1.2-0.6-1.8-0.2h-0.2c-0.4,0.4-0.6,1.2-0.2,1.6l17.8,26c4,4.6,9.6,5.4,14.8,2.6
			l0.6-0.4c12.4,17.4,38,49.7,39.2,51.3c1.8,2,4.8,2.2,6.8,0.6c2-1.8,2.2-4.8,0.6-6.8c-1.4-1.4-28.6-32.2-43.7-47.7l0.6-0.4
			c3.6-4.6,4-10.4,0-15l-22.8-22C222.7,27.8,221.8,27.8,221.4,28.2z"/>
		<path id="XMLID_32_" class="st1" d="M292.1,60.8c7.8-9.4,12.4-23.6,7-28.2c-5.4-4.6-18.8,2.4-26.6,11.6c-7.2,8.4-7.2,16-3,20.6
			c-15.4,15.6-43.9,47.7-43.9,47.7c-1.8,2-1.4,5,0.6,6.8c2,1.8,5,1.4,6.8-0.6c0,0,26.6-33.6,39.4-51.5
			C277.7,70.6,285.1,69.2,292.1,60.8z"/>
	</g>
</g>
</svg>
