<?xml version="1.0" encoding="utf-8"?>
<!-- Generator: Adobe Illustrator 19.0.0, SVG Export Plug-In . SVG Version: 6.00 Build 0)  -->
<svg version="1.1" id="Layer_1" xmlns="http://www.w3.org/2000/svg" xmlns:xlink="http://www.w3.org/1999/xlink" x="0px" y="0px"
	 viewBox="0 91 325 320" style="enable-background:new 0 91 325 320;" xml:space="preserve">
<style type="text/css">
	.st0{fill:#78D864;}
	.st1{fill:#21382F;}
</style>
<g id="XMLID_627_">
	<g id="XMLID_632_">
		<path id="XMLID_634_" class="st0" d="M108.7,174.1L108.7,174.1c-1,1-1.3,2.2-0.3,2.9l29.4,35.2c0.6,0.6,0.3,1.9-0.6,2.6
			c-1,0.6-1.9,1-2.6,0.3l-29.4-35.2c-0.6-1-1.9-1-2.9-0.3l0,0c-1,0.6-1,1.9-0.3,2.9l29.4,35.2c0.6,0.6,0.3,1.9-0.6,2.6
			c-1,0.6-1.9,1-2.6,0.3l-29.4-35.2c-0.6-1-1.9-1-2.9-0.3l0,0c-1,0.6-1,1.9-0.3,2.9L125,223c0.6,0.6,0.3,1.9-0.6,2.6
			c-1,0.6-1.9,1-2.6,0.3l-29.4-35.2c-0.6-1-1.9-1-2.9-0.3h-0.3c-0.6,0.6-1,1.9-0.3,2.6l28.5,41.6c6.4,7.4,15.4,8.6,23.7,4.2l1-0.6
			c19.8,27.8,60.8,79.3,62.7,81.9c2.9,3.2,7.7,3.5,10.9,1c3.2-2.9,3.5-7.7,1-10.9c-2.2-2.2-45.8-51.5-69.7-76.1l1-0.6
			c5.8-7.4,6.4-16.6,0-24l-36.5-35.2C110.6,173.4,109.3,173.4,108.7,174.1z"/>
		<path id="XMLID_633_" class="st0" d="M221.6,226.2c12.5-15,19.8-37.8,11.2-45.1c-8.6-7.4-30.1,3.8-42.6,18.6
			c-11.5,13.4-11.5,25.6-4.8,33c-24.6,25-70.1,76.1-70.1,76.1c-2.9,3.2-2.2,8,1,10.9c3.2,2.9,8,2.2,10.9-1c0,0,42.5-53.8,63-82.2
			C198.6,241.9,210.4,239.6,221.6,226.2z"/>
	</g>
	<g id="XMLID_628_">
		<path id="XMLID_629_" class="st0" d="M284.8,392H42.2c-10.5,0-19.1-8.6-19.1-19.1V130.3c0-10.6,8.6-19.1,19.1-19.1h242.6
			c10.5,0,19.1,8.6,19.1,19.1v242.6C303.9,383.4,295.3,392,284.8,392z M42.2,112.7c-9.7,0-17.6,7.9-17.6,17.6v242.6
			c0,9.7,7.9,17.6,17.6,17.6h242.6c9.7,0,17.6-7.9,17.6-17.6V130.3c0-9.7-7.9-17.6-17.6-17.6H42.2z"/>
	</g>
</g>
<g id="XMLID_328_">
	<g id="XMLID_333_">
		<path id="XMLID_335_" class="st1" d="M108.7,174.1L108.7,174.1c-1,1-1.3,2.2-0.3,2.9l29.4,35.2c0.6,0.6,0.3,1.9-0.6,2.6
			c-1,0.6-1.9,1-2.6,0.3l-29.4-35.2c-0.6-1-1.9-1-2.9-0.3l0,0c-1,0.6-1,1.9-0.3,2.9l29.4,35.2c0.6,0.6,0.3,1.9-0.6,2.6
			c-1,0.6-1.9,1-2.6,0.3l-29.4-35.2c-0.6-1-1.9-1-2.9-0.3l0,0c-1,0.6-1,1.9-0.3,2.9L125,223c0.6,0.6,0.3,1.9-0.6,2.6
			c-1,0.6-1.9,1-2.6,0.3l-29.4-35.2c-0.6-1-1.9-1-2.9-0.3h-0.3c-0.6,0.6-1,1.9-0.3,2.6l28.5,41.6c6.4,7.4,15.4,8.6,23.7,4.2l1-0.6
			c19.8,27.8,60.8,79.3,62.7,81.9c2.9,3.2,7.7,3.5,10.9,1c3.2-2.9,3.5-7.7,1-10.9c-2.2-2.2-45.8-51.5-69.7-76.1l1-0.6
			c5.8-7.4,6.4-16.6,0-24l-36.5-35.2C110.6,173.4,109.3,173.4,108.7,174.1z"/>
		<path id="XMLID_334_" class="st1" d="M221.6,226.2c12.5-15,19.8-37.8,11.2-45.1c-8.6-7.4-30.1,3.8-42.6,18.6
			c-11.5,13.4-11.5,25.6-4.8,33c-24.6,25-70.1,76.1-70.1,76.1c-2.9,3.2-2.2,8,1,10.9c3.2,2.9,8,2.2,10.9-1c0,0,42.5-53.8,63-82.2
			C198.6,241.9,210.4,239.6,221.6,226.2z"/>
	</g>
	<g id="XMLID_329_">
		<path id="XMLID_330_" class="st1" d="M284.8,392H42.2c-10.5,0-19.1-8.6-19.1-19.1V130.3c0-10.6,8.6-19.1,19.1-19.1h242.6
			c10.5,0,19.1,8.6,19.1,19.1v242.6C303.9,383.4,295.3,392,284.8,392z M42.2,112.7c-9.7,0-17.6,7.9-17.6,17.6v242.6
			c0,9.7,7.9,17.6,17.6,17.6h242.6c9.7,0,17.6-7.9,17.6-17.6V130.3c0-9.7-7.9-17.6-17.6-17.6H42.2z"/>
	</g>
</g>
</svg>
